<?xml version="1.0" encoding="UTF-8" standalone="no"?>
<!DOCTYPE svg PUBLIC "-//W3C//DTD SVG 20010904//EN"
              "http://www.w3.org/TR/2001/REC-SVG-20010904/DTD/svg10.dtd">

<svg xmlns="http://www.w3.org/2000/svg"
     width="6.66667in" height="1.38667in"
     viewBox="0 0 2000 416">
  <path id="Selection #1"
        fill="#ffffff" stroke="black" stroke-width="0"
        d="M 642.87,68.00
           C 656.35,36.62 683.64,28.64 715.00,29.00
             721.99,29.09 735.42,31.58 742.00,34.00
             742.00,34.00 737.00,65.96 737.00,65.96
             725.45,65.90 715.83,62.72 704.00,65.96
             674.17,74.01 679.00,112.26 679.00,136.00
             679.00,136.00 728.00,136.00 728.00,136.00
             728.00,136.00 728.00,168.00 728.00,168.00
             728.00,168.00 679.00,168.00 679.00,168.00
             679.00,168.00 679.00,336.00 679.00,336.00
             679.00,336.00 714.00,341.00 714.00,341.00
             714.00,341.00 714.00,369.00 714.00,369.00
             714.00,369.00 601.00,369.00 601.00,369.00
             601.00,369.00 601.00,341.00 601.00,341.00
             601.00,341.00 636.00,336.00 636.00,336.00
             636.00,336.00 636.00,168.00 636.00,168.00
             636.00,168.00 600.00,168.00 600.00,168.00
             600.00,168.00 600.00,136.00 600.00,136.00
             600.00,136.00 636.00,136.00 636.00,136.00
             636.00,113.44 633.78,89.16 642.87,68.00 Z
           M 80.00,272.00
           C 81.97,272.00 85.69,271.74 87.27,272.99
             89.36,274.66 89.94,281.33 90.42,284.00
             90.42,284.00 96.51,314.96 96.51,314.96
             98.94,320.27 110.65,326.65 116.00,329.22
             141.00,341.23 177.13,344.28 203.00,333.38
             219.73,326.34 233.77,312.00 234.00,293.00
             234.07,286.60 234.29,282.22 232.25,276.00
             224.30,251.73 198.43,241.02 176.00,234.28
             176.00,234.28 145.00,225.98 145.00,225.98
             110.77,215.38 68.40,195.99 58.63,158.00
             57.20,152.45 56.07,146.75 56.00,141.00
             56.00,141.00 56.00,133.00 56.00,133.00
             56.09,125.85 57.72,118.75 60.00,112.00
             63.35,102.11 67.28,95.98 73.92,88.00
             103.42,52.59 159.26,45.85 202.00,54.40
             222.35,58.47 238.61,65.37 256.00,76.69
             259.76,79.15 270.08,86.28 271.84,90.32
             272.11,92.00 272.00,95.16 271.84,97.00
             271.84,97.00 271.84,149.00 271.84,149.00
             271.84,149.00 239.00,149.00 239.00,149.00
             239.00,149.00 233.42,117.00 233.42,117.00
             232.12,109.76 232.49,105.59 225.98,100.79
             209.88,88.89 189.20,86.73 170.00,85.71
             170.00,85.71 163.00,85.71 163.00,85.71
             151.06,86.67 142.36,87.29 131.00,92.02
             109.91,100.78 95.05,121.85 100.43,145.00
             107.09,173.71 146.76,186.06 172.00,192.63
             212.95,203.29 261.78,220.67 274.57,266.00
             276.15,271.60 277.85,282.23 277.99,288.00
             278.13,294.47 276.79,304.73 275.12,311.00
             271.17,325.77 263.52,337.06 252.00,347.00
             225.76,369.64 193.32,374.05 160.00,374.00
             149.01,373.98 133.77,371.82 123.00,369.35
             104.94,365.21 84.68,355.86 70.00,344.57
             61.52,338.05 56.02,335.16 56.00,324.00
             56.00,324.00 56.00,272.00 56.00,272.00
             56.00,272.00 80.00,272.00 80.00,272.00 Z
           M 1198.00,56.00
           C 1198.00,56.00 1198.00,132.00 1198.00,132.00
             1198.00,132.00 1169.00,132.00 1169.00,132.00
             1169.00,132.00 1161.17,130.43 1161.17,130.43
             1161.17,130.43 1159.83,120.00 1159.83,120.00
             1159.83,120.00 1157.00,90.00 1157.00,90.00
             1157.00,90.00 1035.00,90.00 1035.00,90.00
             1035.00,90.00 1035.00,190.00 1035.00,190.00
             1035.00,190.00 1155.00,190.00 1155.00,190.00
             1155.00,190.00 1155.00,224.00 1155.00,224.00
             1155.00,224.00 1035.00,224.00 1035.00,224.00
             1035.00,224.00 1035.00,335.00 1035.00,335.00
             1035.00,335.00 1160.00,335.00 1160.00,335.00
             1160.00,335.00 1163.00,294.00 1163.00,294.00
             1163.00,294.00 1200.00,294.00 1200.00,294.00
             1200.00,294.00 1200.00,369.00 1200.00,369.00
             1200.00,369.00 957.00,369.00 957.00,369.00
             957.00,369.00 957.00,341.00 957.00,341.00
             957.00,341.00 992.00,336.00 992.00,336.00
             992.00,336.00 992.00,90.00 992.00,90.00
             992.00,90.00 957.00,84.00 957.00,84.00
             957.00,84.00 957.00,56.00 957.00,56.00
             957.00,56.00 1198.00,56.00 1198.00,56.00 Z
           M 855.00,80.00
           C 855.00,80.00 855.00,136.00 855.00,136.00
             855.00,136.00 899.00,136.00 899.00,136.00
             899.00,136.00 899.00,168.00 899.00,168.00
             899.00,168.00 855.00,168.00 855.00,168.00
             855.00,168.00 855.00,313.00 855.00,313.00
             855.18,327.91 863.70,337.82 879.00,338.00
             889.27,338.12 894.42,336.29 904.00,335.00
             904.00,335.00 907.78,355.00 907.78,355.00
             908.16,357.82 909.46,362.17 907.78,364.78
             905.20,369.60 888.49,372.33 883.00,372.95
             859.02,375.64 832.19,372.92 819.32,349.00
             809.42,330.59 811.00,304.45 811.00,284.00
             811.00,284.00 811.00,168.00 811.00,168.00
             811.00,168.00 783.00,168.00 783.00,168.00
             783.00,168.00 775.02,166.40 775.02,166.40
             775.02,166.40 774.00,161.00 774.00,161.00
             774.00,161.00 774.00,136.00 774.00,136.00
             774.00,136.00 811.00,136.00 811.00,136.00
             811.00,136.00 811.00,80.00 811.00,80.00
             811.00,80.00 855.00,80.00 855.00,80.00 Z
           M 449.00,132.21
           C 471.92,132.27 495.47,142.42 511.83,158.29
             522.95,169.07 532.13,184.48 537.41,199.00
             542.84,213.93 545.98,233.13 546.00,249.00
             546.06,289.71 536.00,333.19 500.00,357.48
             480.07,370.93 459.50,374.27 436.00,374.00
             429.39,373.92 417.48,372.03 411.00,370.37
             403.09,368.35 394.99,365.03 388.00,360.80
             355.16,340.90 337.06,300.72 337.00,263.00
             337.00,263.00 337.00,242.00 337.00,242.00
             337.16,228.55 341.02,209.49 346.00,197.00
             352.08,181.74 360.89,167.34 373.00,156.09
             389.00,141.24 405.96,135.60 427.00,132.21
             427.00,132.21 449.00,132.21 449.00,132.21 Z
           M 1275.00,167.00
           C 1275.00,164.68 1274.76,161.49 1275.99,159.46
             1277.44,157.09 1282.55,153.95 1285.00,152.42
             1294.55,146.47 1301.58,143.69 1312.00,139.81
             1331.94,132.39 1351.08,131.76 1372.00,132.00
             1394.21,132.26 1419.95,142.35 1434.83,159.00
             1453.15,179.49 1452.00,202.54 1452.00,228.00
             1452.00,228.00 1452.00,339.00 1452.00,339.00
             1452.00,339.00 1470.00,341.00 1470.00,341.00
             1470.00,341.00 1470.00,369.00 1470.00,369.00
             1470.00,369.00 1413.00,369.00 1413.00,369.00
             1413.00,369.00 1409.00,339.00 1409.00,339.00
             1397.10,351.94 1385.54,361.87 1369.00,368.55
             1344.28,378.53 1304.18,375.26 1284.01,356.83
             1261.90,336.61 1258.34,293.08 1275.78,269.00
             1284.84,256.50 1299.62,248.35 1314.00,243.52
             1341.59,234.24 1379.71,236.00 1409.00,236.00
             1409.00,213.93 1411.99,192.01 1393.00,176.33
             1377.65,163.65 1353.14,164.22 1335.00,169.59
             1328.52,171.51 1318.59,175.54 1314.51,181.04
             1311.55,185.03 1309.44,200.59 1309.00,206.00
             1309.00,206.00 1275.00,206.00 1275.00,206.00
             1275.00,206.00 1275.00,167.00 1275.00,167.00 Z
           M 1559.00,296.00
           C 1567.78,296.17 1567.31,302.50 1569.01,310.00
             1571.29,320.03 1571.99,327.60 1582.00,332.73
             1598.93,341.40 1631.02,342.80 1648.00,333.68
             1663.08,325.58 1671.79,308.63 1661.87,293.00
             1653.02,279.05 1634.17,273.82 1619.00,270.13
             1584.14,261.66 1530.53,249.05 1530.00,204.00
             1529.91,196.31 1530.03,190.48 1532.35,183.00
             1540.26,157.49 1563.56,140.36 1589.00,134.66
             1602.89,131.55 1612.13,131.98 1626.00,132.00
             1643.87,132.03 1666.02,137.28 1682.00,145.27
             1686.49,147.51 1696.46,153.20 1699.02,157.29
             1701.77,161.69 1700.94,173.53 1701.00,179.00
             1701.00,179.00 1702.00,192.00 1702.00,192.00
             1702.00,192.00 1702.00,210.00 1702.00,210.00
             1702.00,210.00 1678.00,210.00 1678.00,210.00
             1675.92,210.00 1672.26,210.23 1670.56,208.98
             1668.57,207.51 1667.73,202.40 1667.13,200.00
             1665.39,193.05 1664.50,184.28 1658.95,179.33
             1644.47,166.42 1613.88,162.47 1596.00,169.46
             1583.50,174.35 1572.46,186.90 1573.52,201.00
             1575.23,223.77 1598.85,228.86 1617.00,233.37
             1652.16,242.12 1708.46,253.86 1709.00,300.00
             1709.10,308.92 1709.47,315.33 1706.64,324.00
             1695.30,358.79 1657.02,373.95 1623.00,374.00
             1623.00,374.00 1612.00,374.00 1612.00,374.00
             1593.03,373.97 1568.09,369.01 1551.00,360.74
             1546.33,358.48 1535.53,353.72 1533.60,348.91
             1532.88,347.12 1533.00,343.97 1533.00,342.00
             1533.00,342.00 1533.00,296.00 1533.00,296.00
             1533.00,296.00 1559.00,296.00 1559.00,296.00 Z
           M 1952.20,336.00
           C 1953.50,338.18 1956.41,342.36 1956.01,344.91
             1955.37,349.02 1943.71,356.06 1940.00,358.14
             1922.64,367.84 1901.97,373.76 1882.00,374.00
             1862.68,374.22 1844.88,372.94 1827.00,364.69
             1788.91,347.12 1768.06,304.75 1768.00,264.00
             1768.00,264.00 1768.00,242.00 1768.00,242.00
             1768.04,216.60 1777.33,188.71 1793.46,169.00
             1804.80,155.15 1819.14,143.53 1836.00,137.23
             1850.41,131.84 1861.02,131.83 1876.00,132.00
             1902.88,132.32 1928.21,144.13 1944.08,166.00
             1955.60,181.87 1962.97,206.41 1963.00,226.00
             1963.00,226.00 1963.00,263.00 1963.00,263.00
             1963.00,263.00 1812.00,263.00 1812.00,263.00
             1812.01,272.94 1813.70,284.52 1816.75,294.00
             1820.08,304.39 1827.22,317.33 1835.04,324.91
             1853.79,343.10 1883.56,342.77 1907.00,335.25
             1913.12,333.29 1922.55,328.93 1928.00,325.54
             1933.16,322.32 1935.15,319.50 1941.00,317.00
             1941.00,317.00 1952.20,336.00 1952.20,336.00 Z
           M 414.00,172.32
           C 401.09,179.23 394.46,189.95 388.85,203.00
             377.82,228.68 377.73,264.19 384.63,291.00
             391.84,319.01 409.48,339.65 440.00,340.00
             469.70,340.33 486.71,324.16 496.14,297.00
             499.11,288.43 501.89,276.05 502.00,267.00
             502.00,267.00 502.00,241.00 502.00,241.00
             501.96,213.28 487.74,177.01 459.00,168.44
             452.43,166.48 445.81,165.92 439.00,166.14
             439.00,166.14 434.00,166.14 434.00,166.14
             426.92,167.37 420.39,168.90 414.00,172.32 Z
           M 1903.91,179.04
           C 1898.93,173.92 1891.89,170.03 1885.00,168.16
             1874.34,165.26 1861.36,164.88 1851.00,169.09
             1829.85,177.68 1814.20,206.76 1814.00,229.00
             1814.00,229.00 1920.00,229.00 1920.00,229.00
             1920.00,210.02 1917.93,193.44 1903.91,179.04 Z
           M 1362.00,266.00
           C 1352.52,266.01 1341.62,267.73 1333.00,271.78
             1324.37,275.84 1317.05,281.55 1312.35,290.00
             1305.38,302.53 1306.52,322.19 1319.04,330.90
             1326.46,336.06 1335.25,337.02 1344.00,337.68
             1347.24,337.92 1348.89,337.31 1352.00,337.09
             1366.96,336.00 1379.95,331.52 1392.00,322.32
             1397.35,318.24 1406.61,309.52 1408.49,303.00
             1409.09,300.93 1409.00,298.17 1409.00,296.00
             1409.00,296.00 1409.00,266.00 1409.00,266.00
             1409.00,266.00 1362.00,266.00 1362.00,266.00 Z" />
</svg>
